<svg id="svg"
	xmlns="http://www.w3.org/2000/svg"
	xmlns:svg="http://www.w3.org/2000/svg"
	xmlns:xlink="http://www.w3.org/1999/xlink"
	x="0"
	y="0"
	width="1200px"
	height="1000px"
	style="stroke:#000000 ;stroke-width:5px; vector-effect: non-scaling-stroke; fill: none;">
	<defs>
	</defs>
	<!-- solar panel -->
	<g id="solar-panel" transform="translate(90,150) skewX(-20)">
		<rect x="0" y="0" width="200" height="100" rx="10" ry="10"/>
		<line x1="0" y1="33.33" x2="200" y2="33.33"/>
		<line x1="0" y1="66.67" x2="200" y2="66.67"/>
		<line x1="66.67" y1="0" x2="66.67" y2="100"/>
		<line x1="133.33" y1="0" x2="133.33" y2="100"/>
	</g>
	<g id="sun" transform="translate(50,75)">
		<line x1="25" y1="0" x2="50" y2="0"/>
		<line x1="25" y1="0" x2="50" y2="0" transform="rotate(30)"/>
		<line x1="25" y1="0" x2="50" y2="0" transform="rotate(60)"/>
		<line x1="25" y1="0" x2="50" y2="0" transform="rotate(90)"/>
		<line x1="25" y1="0" x2="50" y2="0" transform="rotate(120)"/>
		<line x1="25" y1="0" x2="50" y2="0" transform="rotate(150)"/>
		<line x1="25" y1="0" x2="50" y2="0" transform="rotate(180)"/>
		<line x1="25" y1="0" x2="50" y2="0" transform="rotate(210)"/>
		<line x1="25" y1="0" x2="50" y2="0" transform="rotate(240)"/>
		<line x1="25" y1="0" x2="50" y2="0" transform="rotate(270)"/>
		<line x1="25" y1="0" x2="50" y2="0" transform="rotate(300)"/>
		<line x1="25" y1="0" x2="50" y2="0" transform="rotate(330)"/>
		<circle cx="0" cy="0" r="25" />
	</g>
	<g id="ball_valve1" transform="translate(100,500) rotate(90)">
		<path d="M -7.5,3.75 L -25,12.5 L -25,-12.5 L -7.5,-3.75 " />
		<path d="M 7.5,-3.75 L 25,-12.5 L 25,12.5 L 7.5,3.75 " />
		<circle cx="0" cy="0" r="7.5"/>
	</g>

	<g id="ball_valve2" transform="translate(850,250) rotate(90)">
		<path d="M -7.5,3.75 L -25,12.5 L -25,-12.5 L -7.5,-3.75 " />
		<path d="M 7.5,-3.75 L 25,-12.5 L 25,12.5 L 7.5,3.75 " />
		<circle cx="0" cy="0" r="7.5"/>
	</g>

	<g id="pump1" transform="translate(100,600) rotate(-90)">
		<circle cx="0" cy="0" r="25"/>
		<line x1="-2" y1="-23" x2="23" y2="0"/>
		<line x1="23" y1="0" x2="-2" y2="23"/>
	</g>

	<g id="pool" transform="translate(200,400)">
		<rect x="0" y="0" width="100" height="150" rx="20" ry="20"/>
	</g>

	<g id="reservoir1" transform="translate(350,400)">
		<rect x="0" y="0" width="100" height="150" rx="20" ry="20"/>
	</g>

	<g id="reservoir2" transform="translate(500,400)">
		<rect x="0" y="0" width="100" height="150" rx="20" ry="20"/>
	</g>

	<g id="buffer1" transform="translate(650,475)">
		<rect x="0" y="0" width="100" height="75" rx="20" ry="20"/>
	</g>

	<g id="buffer2" transform="translate(800,400)">
		<rect x="0" y="0" width="100" height="150" rx="20" ry="20"/>
	</g>

	<g id="buffer3" transform="translate(950,400)">
		<rect x="0" y="0" width="100" height="150" rx="20" ry="20"/>
	</g>

	<g id="valve1" transform="translate(250,625) rotate(90)">
		<path d="M 0,0 L -25,12.5 L -25,-12.5 L 0,0 L 25,-12.5 L 25,12.5 L 0,0 z " />
	</g>

	<g id="valve2" transform="translate(475,725) rotate(90)">
		<path d="M 0,0 L -25,12.5 L -25,-12.5 L 0,0 L 25,-12.5 L 25,12.5 L 0,0 z " />
	</g>

	<g id="valve3" transform="translate(850,725) rotate(90)">
		<path d="M 0,0 L -25,12.5 L -25,-12.5 L 0,0 L 25,-12.5 L 25,12.5 L 0,0 z " />
	</g>

	<g id="valve4" transform="translate(700,625) rotate(90)">
		<path d="M 0,0 L -25,12.5 L -25,-12.5 L 0,0 L 25,-12.5 L 25,12.5 L 0,0 z " />
	</g>

	<g id="valve5" transform="translate(850,625) rotate(90)">
		<path d="M 0,0 L -25,12.5 L -25,-12.5 L 0,0 L 25,-12.5 L 25,12.5 L 0,0 z " />
	</g>

	<g id="valve6" transform="translate(1000,625) rotate(90)">
		<path d="M 0,0 L -25,12.5 L -25,-12.5 L 0,0 L 25,-12.5 L 25,12.5 L 0,0 z " />
	</g>

	<g id="wires">
		<!-- lower half from left to right-->
		<line x1="100" y1="250" x2="100" y2="475"/>
		<line x1="100" y1="525" x2="100" y2="575"/>
		<polyline points="100,625 100,825 250,825"/>
		<line x1="250" y1="550" x2="250" y2="600"/>
		<line x1="250" y1="650" x2="250" y2="825"/>
		<line x1="250" y1="825" x2="475" y2="825"/>
		<polyline points="400,550 400,675 475,675"/>
		<polyline points="550,550 550,675 475,675"/>
		<line x1="475" y1="675" x2="475" y2="700"/>
		<line x1="475" y1="750" x2="475" y2="825"/>
		<line x1="475" y1="825" x2="850" y2="825"/>
		<line x1="700" y1="550" x2="700" y2="600"/>
		<polyline points="700,650 700,675 850,675"/>
		<line x1="850" y1="550" x2="850" y2="600"/>
		<line x1="850" y1="650" x2="850" y2="675"/>
		<line x1="1000" y1="550" x2="1000" y2="600"/>
		<polyline points="1000,650 1000,675 850,675"/>
		<line x1="850" y1="675" x2="850" y2="700"/>
		<line x1="850" y1="750" x2="850" y2="825"/>
		<!-- upper half-->
		<polyline points="270,200 850,200 850,225"/>
		<line x1="850" y1="275" x2="850" y2="300"/>
		<line x1="850" y1="300" x2="475" y2="300"/>
		<polyline points="475,300 250,300 250,400"/>
		<line x1="475" y1="300" x2="475" y2="350"/>
		<polyline points="475,350 400,350 400,400"/>
		<polyline points="475,350 550,350 550,400"/>
		<line x1="850" y1="300" x2="850" y2="350"/>
		<polyline points="850,350 700,350 700,475"/>
		<line x1="850" y1="350" x2="850" y2="400"/>
		<polyline points="850,350 1000,350 1000,400"/>
	</g>

	<g id="nodes">
		<circle cx="0" cy="0" r="4" transform="translate(850,300)"/>
		<circle cx="0" cy="0" r="4" transform="translate(850,350)"/>
		<circle cx="0" cy="0" r="4" transform="translate(850,675)"/>
		<circle cx="0" cy="0" r="4" transform="translate(475,300)"/>
		<circle cx="0" cy="0" r="4" transform="translate(475,350)"/>
		<circle cx="0" cy="0" r="4" transform="translate(475,675)"/>
		<circle cx="0" cy="0" r="4" transform="translate(475,825)"/>
		<circle cx="0" cy="0" r="4" transform="translate(250,825)"/>
	</g>
</svg>