<svg id="svg"
	xmlns="http://www.w3.org/2000/svg"
	xmlns:svg="http://www.w3.org/2000/svg"
	xmlns:xlink="http://www.w3.org/1999/xlink"
	x="0"
	y="0"
	width="300px"
	height="300px"
	style="stroke:#000000 ;stroke-width:5px; vector-effect: non-scaling-stroke; fill: none;">
	<defs>
		<linearGradient
			id="linearGradient3902">
			<stop
				id="stop3904"
				style="stop-color:#00ff00;stop-opacity:1"
				offset="0" />
			<stop
				id="stop3910"
				style="stop-color:#f7ff00;stop-opacity:1"
				offset="0.61953294" />
			<stop
				id="stop3906"
				style="stop-color:#ff0000;stop-opacity:1"
				offset="1" />
		</linearGradient>
		<linearGradient
			x1="601.5387"
			y1="803.81433"
			x2="600.21661"
			y2="411.16162"
			id="linearGradient3924"
			xlink:href="#linearGradient3902"
			gradientUnits="userSpaceOnUse" />
	</defs>
	<path d="m 2.5,297.5 h 300"/>
	<path d="m 180,297.5 v -50"/>
	<g transform="translate(90,147.5)">
		<g transform="skewX(-20)">
			<rect x="0" y="0" width="200" height="100" rx="10" ry="10"/>
			<line x1="0" y1="33.33" x2="200" y2="33.33"/>
			<line x1="0" y1="66.67" x2="200" y2="66.67"/>
			<line x1="66.67" y1="0" x2="66.67" y2="100"/>
			<line x1="133.33" y1="0" x2="133.33" y2="100"/>
		</g>
	</g>
	<g transform="translate(50,75)">
		<line x1="25" y1="0" x2="50" y2="0"/>
		<line x1="25" y1="0" x2="50" y2="0" transform="rotate(30)"/>
		<line x1="25" y1="0" x2="50" y2="0" transform="rotate(60)"/>
		<line x1="25" y1="0" x2="50" y2="0" transform="rotate(90)"/>
		<line x1="25" y1="0" x2="50" y2="0" transform="rotate(120)"/>
		<line x1="25" y1="0" x2="50" y2="0" transform="rotate(150)"/>
		<line x1="25" y1="0" x2="50" y2="0" transform="rotate(180)"/>
		<line x1="25" y1="0" x2="50" y2="0" transform="rotate(210)"/>
		<line x1="25" y1="0" x2="50" y2="0" transform="rotate(240)"/>
		<line x1="25" y1="0" x2="50" y2="0" transform="rotate(270)"/>
		<line x1="25" y1="0" x2="50" y2="0" transform="rotate(300)"/>
		<line x1="25" y1="0" x2="50" y2="0" transform="rotate(330)"/>
		<circle cx="0" cy="0" r="25" />
	</g>
</svg>