<?xml version='1.0' encoding='iso-8859-1'?>
<svg version="1.1" xmlns="http://www.w3.org/2000/svg" viewBox="0 0 441.592 441.592" xmlns:xlink="http://www.w3.org/1999/xlink" enable-background="new 0 0 441.592 441.592">
  <path d="m431.092,419.555h-120.699l41.587-71.626h77.115c5.799,0 10.5-4.701 10.5-10.5v-222.144c0-5.799-4.701-10.5-10.5-10.5h-296.191c-5.799,0-10.5,4.701-10.5,10.5v222.144c0,5.799 4.701,10.5 10.5,10.5h77.116l41.587,71.626h-241.107c-5.799,0-10.5,4.701-10.5,10.5s4.701,10.5 10.5,10.5h420.592c5.799,0 10.5-4.701 10.5-10.5s-4.701-10.5-10.5-10.5zm-91.112-293.77h78.615v53.048h-78.615v-53.048zm0,74.049h78.615v53.047h-78.615v-53.047zm0,74.046h78.615v53.048h-72.462c-0.125-0.002-0.252-0.002-0.377,0h-5.776v-53.048zm-96.958-148.095h75.958v53.048h-75.958v-53.048zm-0,74.049h75.958v53.047h-75.958v-53.047zm-0,74.046h75.958v53.048h-75.958v-53.048zm-21,53.049h-5.778c-0.126-0.002-0.252-0.002-0.377,0h-72.463v-53.049h78.618v53.049zm0-74.049h-78.618v-53.047h78.618v53.047zm0-74.046h-78.618v-53.048h78.618v53.048zm53.867,240.721l-41.586-71.626h93.394l-41.586,71.626h-10.222zm-273.568-343.605c1.433-5.619 7.152-9.011 12.769-7.581l24.321,6.2c4.389-10.301 11.142-19.109 19.435-25.931l-12.829-21.609c-2.96-4.986-1.318-11.429 3.668-14.389 4.987-2.958 11.43-1.318 14.389,3.668l12.828,21.608c9.959-4.016 20.925-5.729 32.072-4.651l6.2-24.319c1.433-5.62 7.155-9.014 12.769-7.581 5.62,1.432 9.014,7.149 7.581,12.768l-6.198,24.312c9.995,4.245 18.775,10.775 25.718,19.129l21.954-12.595c5.03-2.887 11.447-1.147 14.333,3.882 2.886,5.03 1.148,11.447-3.882,14.333l-30.186,17.318c-4.946,2.838-11.252,1.209-14.206-3.667-6.47-10.679-16.682-18.269-28.768-21.384-0.043-0.01-0.086-0.021-0.128-0.032-0.043-0.011-0.085-0.021-0.127-0.033-25.309-6.375-51.111,8.952-57.616,34.229-0.009,0.036-0.018,0.072-0.027,0.107-0.009,0.036-0.019,0.072-0.028,0.107-3.09,12.242-1.251,24.957 5.181,35.824 0.011,0.019 0.022,0.038 0.034,0.057 0.011,0.019 0.022,0.037 0.034,0.056 6.481,10.882 16.806,18.596 29.081,21.725 5.619,1.433 9.013,7.149 7.581,12.768l-8.594,33.717c-1.21,4.749-5.481,7.909-10.167,7.909-0.859,0-1.731-0.106-2.601-0.328-5.62-1.433-9.014-7.149-7.582-12.768l6.197-24.312c-10.121-4.294-18.985-10.926-25.962-19.423l-21.573,12.809c-4.985,2.961-11.427,1.319-14.389-3.668-2.961-4.986-1.318-11.428 3.668-14.389l21.572-12.809c-4.12-10.194-5.699-21.15-4.625-32.092l-24.316-6.197c-5.619-1.432-9.013-7.149-7.581-12.768z"/>
</svg>
